<?xml version="1.0" standalone="no"?>
<!DOCTYPE svg PUBLIC "-//W3C//DTD SVG 20010904//EN"
 "http://www.w3.org/TR/2001/REC-SVG-20010904/DTD/svg10.dtd">
<svg version="1.0" xmlns="http://www.w3.org/2000/svg"
 width="50.000000pt" height="50.000000pt" viewBox="0 0 50.000000 50.000000"
 preserveAspectRatio="xMidYMid meet">

<g transform="translate(0.000000,50.000000) scale(0.100000,-0.100000)"
fill="#000000" stroke="none">
<path d="M154 432 c-123 -71 -115 -58 -112 -186 l3 -110 40 -27 c22 -14 68
-41 103 -60 l62 -34 65 35 c36 19 82 46 102 60 l38 26 3 108 c2 71 -1 113 -9
122 -16 19 -183 114 -200 113 -8 0 -51 -21 -95 -47z m160 -83 c25 -19 26 -23
12 -37 -12 -12 -20 -13 -45 -3 -80 34 -138 -68 -65 -116 22 -14 31 -15 61 -4
30 11 38 11 50 -2 13 -13 11 -17 -14 -37 -40 -32 -104 -23 -147 19 -57 57 -36
160 39 191 36 15 82 10 109 -11z m59 -61 c4 -10 8 -10 15 1 9 12 13 12 28 -3
14 -15 15 -19 3 -27 -12 -8 -12 -10 0 -18 12 -8 11 -12 -3 -27 -15 -14 -19
-15 -27 -3 -8 12 -10 12 -18 0 -8 -12 -12 -11 -27 3 -14 15 -15 19 -3 27 12 8
12 10 0 18 -12 8 -12 11 0 25 17 19 26 20 32 4z"/>
<path d="M370 250 c0 -5 5 -10 10 -10 6 0 10 5 10 10 0 6 -4 10 -10 10 -5 0
-10 -4 -10 -10z"/>
</g>
</svg>
