<?xml version="1.0" standalone="no"?>
<!DOCTYPE svg PUBLIC "-//W3C//DTD SVG 20010904//EN"
 "http://www.w3.org/TR/2001/REC-SVG-20010904/DTD/svg10.dtd">
<svg version="1.0" xmlns="http://www.w3.org/2000/svg"
  width="50.000000pt" height="50.000000pt" viewBox="0 0 50.000000 50.000000"
  preserveAspectRatio="xMidYMid meet">

 <g transform="translate(0.000000,50.000000) scale(0.100000,-0.100000)"
 fill="#ff0000" stroke="none">
  <path d="M310 448 c-41 -10 -78 -25 -82 -31 -13 -20 -9 -40 7 -33 8 3 38 8 66
  12 l51 7 -36 -72 -36 -71 -80 0 c-44 0 -80 3 -80 6 0 3 21 30 46 60 l46 54
  -29 0 c-23 0 -41 -14 -93 -72 l-64 -71 69 -64 c53 -47 77 -63 100 -63 l29 0
  -54 55 -54 55 81 0 82 0 42 -61 c22 -33 39 -63 36 -65 -2 -3 -31 0 -63 5 -33
  5 -61 8 -62 6 -2 -2 -1 -12 2 -23 5 -16 21 -23 74 -32 133 -22 122 -27 143 69
  14 62 16 88 8 104 -14 25 -23 12 -40 -55 -6 -27 -14 -48 -17 -48 -4 0 -24 27
  -44 61 l-38 60 36 72 36 71 20 -54 c25 -68 33 -77 47 -52 8 15 4 38 -18 103
  -16 49 -34 85 -42 86 -8 1 -48 -8 -89 -19z"/>
 </g>
</svg>
